Coordinates
version=1
nRows=29
nColumns=24
inDegrees=yes

Units are S.I. units (second, meters, Newtons, ...)
Angles are in degrees.

endheader
time	pelvis_tilt	pelvis_list	pelvis_rotation	pelvis_tx	pelvis_ty	pelvis_tz	hip_flexion_r	hip_adduction_r	hip_rotation_r	knee_angle_r	ankle_angle_r	subtalar_angle_r	mtp_angle_r	hip_flexion_l	hip_adduction_l	hip_rotation_l	knee_angle_l	ankle_angle_l	subtalar_angle_l	mtp_angle_l	lumbar_extension	lumbar_bending	lumbar_rotation
      1.26616667	      4.99773346	     -4.29940171	     -2.82171158	      0.03535673	      1.04877757	      0.31262149	    -25.06390571	      8.80771413	     -1.42172825	     -8.41488256	      2.94790875	     -4.22898469	      1.30940380	     18.15404842	     -0.82045031	    -11.37832276	      0.29865129	     14.20222774	     10.58709977	     -1.26336762	     -2.18307209	      8.28678850	      3.48447093
      1.27033333	      5.03054422	     -4.27481556	     -2.88650670	      0.04141850	      1.04866083	      0.31285131	    -25.15367589	      8.72129227	     -1.39337079	     -8.93903875	      2.82569600	     -4.22212520	      1.32995513	     18.01890851	     -0.80082791	    -11.27217634	     -0.09662118	     14.14458757	     10.52697968	     -1.26368052	     -2.09604630	      8.21046957	      3.50585295
      1.27450000	      5.16171371	     -4.13646723	     -2.99374678	      0.04778861	      1.04875508	      0.31300554	    -25.34576485	      8.46709975	     -1.52529269	     -9.41616345	      2.05854536	     -4.02626977	      1.53123640	     17.69684591	     -0.64314330	    -11.18439355	     -0.35353396	     13.78994909	      9.73356344	     -1.26441108	     -2.11772587	      7.97727702	      3.61832221
      1.27866667	      5.16914943	     -4.10753881	     -3.12193072	      0.05393124	      1.04871441	      0.31322973	    -25.35448841	      8.33499751	     -1.55837454	    -10.05238851	      1.93235782	     -4.03698161	      1.56057115	     17.52613440	     -0.62604167	    -11.08356845	     -0.63908831	     13.71150286	      9.66406609	     -1.26274456	     -2.08534713	      7.90432369	      3.63292752
      1.28283333	      5.17151708	     -3.95984187	     -3.34273446	      0.06050256	      1.04878035	      0.31342928	    -25.34757629	      8.01262045	     -1.76695194	    -10.67398407	      1.28264408	     -3.87692364	      1.68309511	     17.28958564	     -0.48431682	    -11.22498127	     -0.81623842	     13.29436740	      9.10839377	     -1.25857210	     -2.10884168	      7.74229920	      3.69575450
      1.28700000	      5.26814857	     -3.85554280	     -3.51133384	      0.06688403	      1.04896184	      0.31361712	    -25.42943337	      7.75566555	     -1.86222408	    -11.30491769	      0.68943602	     -3.66462787	      1.85696031	     16.93851674	     -0.37422211	    -11.11602599	     -0.93441489	     12.75505015	      8.52575857	     -1.24346057	     -2.08170522	      7.56177567	      3.80136106
      1.29116667	      5.40167223	     -3.77677335	     -3.57430173	      0.07313929	      1.04915793	      0.31369956	    -25.52913914	      7.56814193	     -2.02906840	    -11.95448970	      0.17202666	     -3.44282709	      2.13169886	     16.58706748	     -0.26552792	    -11.02655305	     -1.09998157	     12.18285465	      7.72493744	     -1.20475748	     -2.08563811	      7.38036716	      3.94176937
      1.29533333	      5.44946449	     -3.68576472	     -3.74665393	      0.07953263	      1.04934723	      0.31385911	    -25.49989609	      7.31524716	     -2.18784818	    -12.69753788	     -0.32634868	     -3.27753443	      2.36039642	     16.27906489	     -0.16893081	    -11.00361294	     -1.19592624	     11.69623426	      7.20964618	     -1.16485368	     -2.08319555	      7.24698064	      4.02068557
      1.29950000	      5.54518537	     -3.58071826	     -3.91360167	      0.08594822	      1.04962928	      0.31399379	    -25.51845743	      7.03790879	     -2.27034897	    -13.42708419	     -0.88270040	     -3.02706852	      2.86776032	     15.86818038	     -0.04246316	    -10.68427149	     -1.17437970	     10.95569946	      6.36402269	     -1.05396016	     -2.11121915	      7.06405089	      4.18392698
      1.30366667	      5.62021682	     -3.49241091	     -4.02717709	      0.09226730	      1.04988136	      0.31394390	    -25.45785166	      6.78520824	     -2.57937021	    -14.25419462	     -1.39301027	     -2.84081594	      3.90959370	     15.52334966	      0.08750022	    -10.49752873	     -1.21985399	     10.23278331	      5.31406197	     -0.78289687	     -2.23225537	      6.94341631	      4.33983778
      1.30783333	      5.60983018	     -3.37306139	     -4.26146764	      0.09884646	      1.05013236	      0.31418729	    -25.30332374	      6.46530625	     -2.72663186	    -15.10324788	     -1.91966879	     -2.73506911	      4.02437855	     15.25024746	      0.19485593	    -10.71830571	     -1.28927399	      9.93022793	      5.24261116	     -0.75484362	     -2.12376660	      6.87138776	      4.32853383
      1.31200000	      5.66001148	     -3.28727327	     -4.44739220	      0.10526166	      1.05047008	      0.31448408	    -25.20515446	      6.20480400	     -2.75464585	    -15.91283557	     -2.79724399	     -2.49477943	      4.41906428	     14.92637277	      0.26731409	    -10.83503713	     -1.34204283	      9.07205943	      4.84045715	     -0.64885367	     -1.96257043	      6.62505085	      4.40738806
      1.31616667	      5.68582132	     -3.18602694	     -4.59948102	      0.11166489	      1.05078124	      0.31461499	    -25.03036482	      5.92307095	     -3.00556589	    -16.82045102	     -3.50802616	     -2.32655953	      4.64650592	     14.66541953	      0.37241946	    -11.10958409	     -1.47670788	      8.51803876	      4.48129214	     -0.58622210	     -1.92126423	      6.46779846	      4.44855310
      1.32033333	      5.73310174	     -3.07346667	     -4.80890131	      0.11809586	      1.05119507	      0.31480946	    -24.87403690	      5.59874161	     -3.06306551	    -17.71385002	     -4.33706636	     -2.13787497	      5.22331996	     14.29983777	      0.48956260	    -10.93288535	     -1.43705880	      7.62073958	      3.77612564	     -0.40766529	     -1.84771418	      6.27715637	      4.56924731
      1.32450000	      5.71132371	     -2.94816783	     -4.96852611	      0.12451992	      1.05150408	      0.31486442	    -24.59234814	      5.27198613	     -3.36137197	    -18.72413128	     -4.84713604	     -2.03964707	      5.34601857	     14.08444396	      0.62337299	    -11.13272237	     -1.57403126	      7.32077605	      3.60943898	     -0.37048733	     -1.91580753	      6.18050778	      4.56936903
      1.32866667	      5.77775486	     -2.83166493	     -5.12778103	      0.13089309	      1.05196556	      0.31503981	    -24.41056179	      4.95405314	     -3.49526263	    -19.64771259	     -5.95955053	     -1.71721379	      5.62615538	     13.77234552	      0.73790535	    -11.33850165	     -1.68105071	      6.46711840	      3.18171777	     -0.28820040	     -1.74155780	      5.91197396	      4.63802641
      1.33283333	      5.79247857	     -2.69307141	     -5.28026125	      0.13726463	      1.05239061	      0.31511926	    -24.13591731	      4.60626656	     -3.70868357	    -20.64790414	     -6.84920865	     -1.53402436	      5.90850776	     13.51389062	      0.88389487	    -11.43001276	     -1.78997783	      5.80483174	      2.75125489	     -0.19936114	     -1.69055144	      5.71131926	      4.68904867
      1.33700000	      5.82449121	     -2.56741224	     -5.38711530	      0.14346171	      1.05282901	      0.31493911	    -23.84453561	      4.26303101	     -3.94932409	    -21.68935321	     -7.73580499	     -1.53272141	      7.19661055	     13.20344457	      1.05771274	    -10.91366944	     -1.79241356	      4.82625365	      1.34040692	      0.24973404	     -1.72107983	      5.59447209	      4.81049008
      1.34116667	      5.84597388	     -2.39030131	     -5.52559078	      0.14987125	      1.05329527	      0.31503293	    -23.54567440	      3.87068318	     -4.16642204	    -22.71252618	     -8.66155477	     -1.17351194	      7.43514885	     12.96839669	      1.23478475	    -11.20766421	     -1.98262163	      4.44493832	      1.34573338	      0.32981351	     -1.59418772	      5.32206985	      4.81308854
      1.34533333	      5.85779771	     -2.23072519	     -5.66026737	      0.15612691	      1.05377596	      0.31510758	    -23.20612792	      3.49725947	     -4.32552531	    -23.75999576	     -9.67226166	     -0.95106739	      7.69765588	     12.75087089	      1.38992081	    -11.36900878	     -2.16700115	      3.90718561	      1.24956553	      0.41554649	     -1.52983354	      5.08396673	      4.81334165
      1.34950000	      5.76964899	     -2.09916585	     -5.75146584	      0.16224039	      1.05413761	      0.31499536	    -22.72201796	      3.16805864	     -4.50633003	    -24.84216694	    -10.87464931	     -1.21628650	      9.10679913	     12.63660672	      1.53033157	    -11.12944974	     -2.31591819	      3.07436293	      0.40714544	      0.90596664	     -1.39716797	      4.98311530	      4.77936823
      1.35366667	      5.81688964	     -1.86614933	     -5.84431202	      0.16858446	      1.05466305	      0.31498548	    -22.39889897	      2.71448082	     -4.73332459	    -25.89747422	    -11.82548763	     -0.78160187	      9.34015495	     12.40190607	      1.77479586	    -11.38483615	     -2.55627209	      2.79116195	      0.44237513	      0.98375488	     -1.31611786	      4.60009397	      4.80307441
      1.35783333	      5.83492381	     -1.67491612	     -5.92966249	      0.17471780	      1.05517673	      0.31495839	    -22.01113239	      2.31275792	     -4.89214657	    -26.97246588	    -12.94467945	     -0.53805682	      9.58575766	     12.21423339	      1.96568489	    -11.53654907	     -2.80626707	      2.34616177	      0.41350721	      1.06283411	     -1.27430262	      4.34127735	      4.79730826
      1.36200000	      5.83673971	     -1.47338197	     -5.99316786	      0.18083613	      1.05567232	      0.31488043	    -21.59098075	      1.90545490	     -5.05934031	    -28.05124583	    -14.11926816	     -0.40256386	      9.84084747	     12.05453759	      2.16930214	    -11.65869738	     -3.07717092	      1.92524453	      0.32655449	      1.14535190	     -1.20736585	      4.07025394	      4.78671851
      1.36616667	      5.83757690	     -1.26257150	     -6.03889290	      0.18689731	      1.05616140	      0.31478799	    -21.15356033	      1.49639258	     -5.21574251	    -29.13319396	    -15.34050401	     -0.31118479	     10.10291793	     11.90689769	      2.38202440	    -11.76455723	     -3.36458409	      1.52453311	      0.23204675	      1.23024202	     -1.13153933	      3.79047089	      4.76609182
      1.37033333	      5.84155630	     -1.05319439	     -6.06247339	      0.19289542	      1.05665564	      0.31464795	    -20.70473123	      1.09428883	     -5.36600637	    -30.21750774	    -16.57170649	     -0.24384548	     10.35758448	     11.76928306	      2.59442025	    -11.86596939	     -3.67736448	      1.16322071	      0.15943711	      1.31322003	     -1.07616176	      3.52001751	      4.73284269
      1.37450000	      5.84188004	     -0.83720476	     -6.11608885	      0.19889376	      1.05716205	      0.31449521	    -20.23609931	      0.66955794	     -5.46060862	    -31.29531514	    -17.92560206	     -0.32241395	     10.75426614	     11.61871836	      2.81383711	    -11.89961831	     -3.95613510	      0.79351886	      0.10889928	      1.44529948	     -0.93610822	      3.33784127	      4.64875749
      1.37866667	      5.82552296	     -0.63254322	     -6.05536745	      0.20475208	      1.05758962	      0.31428185	    -19.74510817	      0.31173752	     -5.62196092	    -32.37871072	    -19.06903802	     -0.22164950	     10.99066086	     11.55348987	      3.01903753	    -12.07776756	     -4.36801518	      0.54599219	      0.09165128	      1.52355194	     -0.95412258	      2.95807947	      4.62048812
      1.38283333	      5.83076199	     -0.40925024	     -6.05642552	      0.21064577	      1.05807344	      0.31407085	    -19.26132671	     -0.09947045	     -5.71296444	    -33.44868653	    -20.36697134	     -0.17217901	     11.21945215	     11.43065710	      3.24594476	    -12.20617532	     -4.71024272	      0.27621874	      0.15295002	      1.60066469	     -0.89560695	      2.70041684	      4.56071849
